<svg width="211" height="59" viewBox="0 0 211 59" fill="none" xmlns="http://www.w3.org/2000/svg">
<path d="M0.888184 34.9524C1.86572 34.1538 3.30688 34.2854 4.11719 35.2537C7.93091 39.812 12.5466 41.8342 18.6064 41.8342C26.1465 41.8342 30.342 37.821 30.342 32.4094C30.342 27.3625 27.3628 24.3831 16.1743 22.9236C3.04004 21.282 0 17.6335 0 11.6138C0 5.29004 5.16846 0 15.4448 0C23.4541 0 28.7661 2.84155 32.7527 7.75342C33.5715 8.76221 33.3899 10.2488 32.3467 11.0229C31.3264 11.7798 29.8882 11.5513 29.1433 10.522C25.8926 6.03125 21.6406 3.95239 15.2622 3.95239C11.3706 3.95239 8.5127 4.80371 6.74951 6.56714C4.98608 8.33032 4.07422 10.3369 4.07422 12.7083C4.07422 17.3904 5.71582 21.0996 16.1743 22.5591C30.0989 24.3831 34.355 27.3625 34.355 33.5039C34.355 40.1924 29.3689 45.7256 18.3025 45.7256C10.1064 45.7256 4.77954 42.9524 0.625488 38.2964C-0.254395 37.3098 -0.135742 35.7886 0.888184 34.9524Z" fill="white"/>
<path d="M43.5974 2.85803V42.8983C43.5974 44.0905 42.6306 45.057 41.4385 45.057C40.2126 45.057 39.2192 44.0632 39.2192 42.8374V2.85803C39.2192 1.64893 40.199 0.668945 41.4082 0.668945C42.6172 0.668945 43.5974 1.64893 43.5974 2.85803Z" fill="white"/>
<path d="M63.7219 45.057C62.5132 45.057 61.533 44.0769 61.533 42.8679V13.1646C61.533 11.9723 62.4995 11.006 63.6917 11.006C64.884 11.006 65.8503 11.9723 65.8503 13.1646V24.444C66.7014 19.6403 68.4041 16.1135 70.8972 13.8029C73.4509 11.4922 76.248 10.337 79.3489 10.337C87.6187 10.337 92.24 15.2623 92.24 23.7144V24.0184C93.8816 15.3231 98.564 10.337 104.887 10.337C113.339 10.337 117.839 15.8096 117.839 24.2615V42.8679C117.839 44.0769 116.859 45.057 115.65 45.057C114.441 45.057 113.461 44.0769 113.461 42.8679V25.5992C113.461 18.5458 110.481 14.1069 103.185 14.1069C98.3206 14.1069 94.0032 17.5729 92.24 24.9303V42.8679C92.24 44.0769 91.26 45.057 90.051 45.057C88.842 45.057 87.8618 44.0769 87.8618 42.8679V25.2344C87.8618 18.3634 84.9436 14.1069 77.6462 14.1069C75.0317 14.1069 72.6604 14.8973 70.5322 16.4177C68.4651 17.9377 66.9446 20.674 65.9111 24.7479V42.8679C65.9111 44.0769 64.9309 45.057 63.7219 45.057Z" fill="white"/>
<path d="M156.571 0.668945C157.78 0.668945 158.76 1.64893 158.76 2.85791V27.1802C158.76 39.5845 151.707 45.6649 141.248 45.6649C130.607 45.6649 124.283 39.8884 124.283 27.1802V2.85791C124.283 1.64893 125.264 0.668945 126.472 0.668945C127.681 0.668945 128.661 1.64893 128.661 2.85791V27.1193C128.661 36.7874 133.1 41.5303 141.309 41.5303C149.639 41.5303 154.382 36.7874 154.382 27.1193V2.85791C154.382 1.64893 155.362 0.668945 156.571 0.668945Z" fill="white"/>
<path d="M165.205 55.9716V13.1644C165.205 11.9723 166.171 11.0057 167.363 11.0057C168.555 11.0057 169.522 11.9723 169.522 13.1644V20.4305L169.218 24.8695C170.86 15.3839 176.94 10.3978 184.237 10.3978C192.02 10.3978 199.864 16.0526 199.864 27.7882C199.864 39.2196 192.385 45.6041 183.811 45.6041C175.542 45.6041 170.677 39.8883 169.279 31.1932L169.644 36.2401V55.9716C169.644 57.1971 168.65 58.191 167.424 58.191C166.198 58.191 165.205 57.1971 165.205 55.9716ZM192.02 38.0035C194.391 35.5712 195.546 32.1661 195.546 27.849C195.546 18.8497 189.648 14.2894 182.777 14.2894C174.021 14.2894 169.279 20.2482 169.279 28.0924C169.279 32.0446 170.495 35.328 172.866 37.8817C175.299 40.3749 178.703 41.6517 183.021 41.6517C186.73 41.6517 189.709 40.4354 192.02 38.0035Z" fill="white"/>
<path d="M56.1528 4.37793C56.1528 6.50623 54.6938 8.08728 52.4441 8.08728C50.2549 8.08728 48.7954 6.50623 48.7954 4.37793C48.7954 2.12817 50.2549 0.668945 52.4441 0.668945C54.6938 0.668945 56.1528 2.12817 56.1528 4.37793ZM52.4441 10.8842C52.5449 10.8842 52.626 10.9644 52.6265 11.0652C52.6431 18.4629 53.6655 27.2972 54.3286 34.1726C54.6331 37.2738 54.937 39.7667 54.937 41.4086C54.937 44.2664 53.7207 45.057 52.4441 45.057C51.167 45.057 49.9509 44.2664 49.9509 41.4086C49.9509 39.8884 50.2549 37.3954 50.5591 34.2335C51.2224 27.4796 52.2444 18.3491 52.2612 11.0653C52.2612 10.9644 52.3433 10.8842 52.4441 10.8842Z" fill="white"/>
<path d="M210.362 41.3479C210.362 39.2196 208.902 37.6388 206.653 37.6388C204.464 37.6388 203.004 39.2196 203.004 41.3479C203.004 43.5977 204.464 45.057 206.653 45.057C208.902 45.057 210.362 43.5977 210.362 41.3479ZM206.653 34.8417C206.753 34.8417 206.835 34.7615 206.835 34.6606C206.852 27.2629 207.874 18.4287 208.537 11.5531C208.842 8.45203 209.146 5.95898 209.146 4.31738C209.146 1.45959 207.929 0.668945 206.653 0.668945C205.375 0.668945 204.159 1.45959 204.159 4.31738C204.159 5.8374 204.464 8.33057 204.767 11.4923C205.431 18.2465 206.453 27.3767 206.47 34.6606C206.47 34.7614 206.552 34.8417 206.653 34.8417Z" fill="white"/>
</svg>
